<?xml version="1.0" encoding="UTF-8" standalone="no"?>
<!-- Created with Inkscape (http://www.inkscape.org/) -->
<svg
   xmlns:svg="http://www.w3.org/2000/svg"
   xmlns="http://www.w3.org/2000/svg"
   version="1.0"
   width="171.52368"
   height="205.04932"
   id="svg2">
  <defs
     id="defs4" />
  <g
     transform="translate(-46.40488,32.50831)"
     id="layer1">
    <g
       transform="translate(432,-133)"
       id="g2396">
      <path
         d="M -378.33328,299.25358 L -385.59512,292.57647 L -385.58328,207.86398 C -385.57159,124.23789 -385.54448,123.07943 -383.46893,117.53202 C -379.03186,105.67289 -372.3618,101.63896 -355.57144,100.66013 C -345.50163,100.07309 -342.38786,100.49056 -279.57144,110.84961 L -214.07144,121.65121 L -214.07144,191.61384 C -214.07144,245.51612 -214.36463,262.54243 -215.34866,265.78442 C -216.91654,270.94996 -222.07791,277.88715 -226.08609,280.21616 C -228.07308,281.37073 -252.14638,285.82014 -298.07144,293.52105 C -336.02144,299.88466 -367.97144,305.28013 -369.07144,305.51097 C -370.47654,305.80584 -373.23147,303.94459 -378.33328,299.25358 z M -286.94644,276.07647 C -284.69003,276.07647 -284.57144,275.75191 -284.57144,269.57647 C -284.57144,263.79534 -284.78743,263.07647 -286.52439,263.07647 C -290.22827,263.07647 -293.37653,260.83511 -295.12786,256.95134 C -296.09395,254.80895 -296.70147,252.91575 -296.47791,252.74424 C -296.25435,252.57273 -293.94503,251.21485 -291.34609,249.72673 C -278.44303,242.33861 -272.65881,225.76504 -272.622,196.07647 C -272.57771,160.36674 -281.56904,143.43812 -302.88791,139.09266 C -309.59145,137.72626 -317.19499,138.45954 -323.16083,141.04777 C -332.07231,144.91394 -338.85954,155.26251 -342.19966,170.07647 C -344.57511,180.61197 -344.54628,209.45156 -342.14919,220.57647 C -338.63275,236.89623 -330.33383,248.98901 -320.37155,252.30977 C -316.68222,253.53954 -316.16791,254.14808 -314.61715,259.11836 C -312.2053,266.84852 -310.05039,270.59924 -306.61599,273.04475 C -303.18086,275.49077 -296.38024,277.12131 -292.19644,276.50203 C -290.61519,276.26797 -288.25269,276.07647 -286.94644,276.07647 z M -309.5555,238.77174 C -312.60446,237.25167 -316.26487,231.93509 -317.53945,227.17543 C -321.70704,211.61236 -321.35796,173.08113 -316.94956,162.06345 C -314.94843,157.06216 -310.32719,153.07647 -306.52951,153.07647 C -302.32707,153.07647 -297.042,158.14366 -295.0784,164.05552 C -291.60602,174.50986 -291.02094,209.60429 -294.07311,224.35486 C -296.49997,236.08345 -302.93276,242.07353 -309.5555,238.77174 z M -242.57144,246.02815 C -233.10902,243.9266 -232.57144,243.4621 -232.57144,237.38776 C -232.57144,232.66964 -232.80535,232.01119 -234.32144,232.46159 C -240.31922,234.24345 -241.71642,234.25524 -243.61173,232.54 C -245.46171,230.8658 -245.57144,229.31936 -245.57144,204.92148 L -245.57144,179.07647 L -239.57144,179.07647 L -233.57144,179.07647 L -233.57144,173.20564 L -233.57144,167.3348 L -239.57144,166.65598 L -245.57144,165.97716 L -245.57144,156.58583 C -245.57144,151.4206 -245.90894,146.98902 -246.32144,146.73787 C -246.73394,146.48673 -249.28714,146.12267 -251.99521,145.92886 L -256.91899,145.57647 L -258.63457,152.57647 C -259.57814,156.42647 -260.63352,160.81397 -260.97985,162.32647 C -261.51858,164.67919 -262.11241,165.07647 -265.09049,165.07647 L -268.57144,165.07647 L -268.57144,171.57647 L -268.57144,178.07647 L -265.57144,178.07647 L -262.57144,178.07647 L -262.57144,207.11631 C -262.57144,242.59949 -262.17274,243.9616 -251.07144,246.40438 C -247.87899,247.10686 -247.31626,247.08195 -242.57144,246.02815 z"
         id="path2400"
         style="fill:#7cc040" />
      <path
         d="M -378.85274,298.29747 L -384.57144,292.51848 L -384.57144,207.16349 C -384.57144,145.27966 -384.25231,120.74334 -383.41088,117.93491 C -381.93019,112.99279 -376.4357,106.55803 -371.58215,104.08193 C -369.50623,103.02288 -364.71708,101.90308 -360.9396,101.59349 C -355.86018,101.1772 -354.6698,101.2932 -356.36896,102.03889 C -361.31461,104.20933 -365.64359,108.52366 -368.29674,113.92632 L -371.07144,119.57647 L -371.35131,211.82647 C -371.50524,262.56397 -371.96933,304.07647 -372.38262,304.07647 C -372.7959,304.07647 -375.70746,301.47592 -378.85274,298.29747 z M -307.78759,275.88178 C -312.51711,274.62439 -317.75579,268.88779 -320.02608,262.48006 C -320.98164,259.78309 -322.1215,256.64981 -322.5591,255.51722 C -323.03528,254.28477 -324.97497,252.97254 -327.39012,252.24894 C -336.33128,249.5701 -344.67456,237.54777 -348.29922,222.11974 C -350.90205,211.04107 -350.82957,177.48519 -348.18142,167.57647 C -344.13149,152.4227 -336.43564,142.59846 -326.24389,139.57184 C -319.67575,137.62131 -315.66349,137.73547 -321.24721,139.71401 C -330.65197,143.04649 -337.57161,152.11748 -341.76174,166.60659 C -343.85612,173.84878 -344.05987,176.49387 -343.99329,195.57647 C -343.93005,213.7033 -343.6315,217.62369 -341.81117,224.23058 C -337.71046,239.11412 -331.54452,247.666 -321.70931,252.11096 C -317.19361,254.1518 -316.41347,254.94941 -315.45633,258.50397 C -313.17854,266.963 -308.65178,273.10578 -302.77317,275.71491 C -300.61792,276.67149 -300.47598,276.90956 -302.07144,276.8919 C -303.17144,276.87973 -305.74371,276.42517 -307.78759,275.88178 z M -260.47778,245.77003 C -268.35926,243.00841 -269.57144,237.37563 -269.57144,203.5133 C -269.57144,180.67708 -269.7336,178.19174 -271.24268,177.89979 C -272.4063,177.67468 -273.28237,175.75401 -274.12695,171.57647 C -274.79411,168.27647 -275.14049,165.23897 -274.89669,164.82647 C -274.65288,164.41397 -273.35496,164.07647 -272.01242,164.07647 C -269.65692,164.07647 -269.57144,164.3216 -269.57144,171.07647 L -269.57144,178.07647 L -266.62699,178.07647 L -263.68253,178.07647 L -263.37699,207.32647 C -263.03784,239.79275 -262.78319,241.14739 -256.27289,245.11695 C -253.77601,246.63939 -253.5116,247.05739 -255.07144,247.01629 C -256.17144,246.9873 -258.60429,246.42648 -260.47778,245.77003 z M -306.31158,236.32647 C -300.67053,230.43709 -298.57144,219.34481 -298.57144,195.42506 C -298.57144,172.52581 -301.30205,159.47985 -306.91839,155.54601 C -308.95776,154.11758 -308.93007,154.07647 -305.92881,154.07647 C -295.69269,154.07647 -291.87646,168.22932 -292.85107,202.57647 C -293.39299,221.67461 -294.64568,229.20776 -298.17543,234.59483 C -299.79863,237.07214 -303.65829,239.07647 -306.80558,239.07647 C -308.87254,239.07647 -308.85567,238.98256 -306.31158,236.32647 z M -241.07144,232.07647 C -239.97144,231.60378 -237.72144,231.21704 -236.07144,231.21704 C -233.51382,231.21704 -233.36636,231.34377 -235.07144,232.07647 C -236.17144,232.54916 -238.42144,232.9359 -240.07144,232.9359 C -242.62906,232.9359 -242.77652,232.80917 -241.07144,232.07647 z M -267.27398,162.82647 C -262.90328,143.70421 -263.44461,145.07647 -260.27197,145.07647 C -257.73559,145.07647 -257.41664,145.37651 -257.91741,147.29147 C -258.23599,148.50971 -259.25357,153.00971 -260.1787,157.29147 C -261.81728,164.87529 -261.93734,165.07647 -264.8245,165.07647 C -267.38374,165.07647 -267.71806,164.76937 -267.27398,162.82647 z"
         id="path2398"
         style="fill:#016123" />
    </g>
  </g>
</svg>
